<svg xmlns="http://www.w3.org/2000/svg" width="601" height="601" fill="none" viewBox="0 0 601 601">
  <path fill="#000" d="M300.354.646a.501.501 0 0 0-.708 0l-3.182 3.182a.5.5 0 0 0 .708.708L300 1.707l2.828 2.829a.501.501 0 0 0 .708-.708L300.354.646ZM300.5 601V1h-1v600h1Z"/>
  <path fill="#000" d="M600.354 301.354a.502.502 0 0 0 0-.708l-3.182-3.182a.502.502 0 0 0-.708.708l2.829 2.828-2.829 2.828a.502.502 0 0 0 .708.708l3.182-3.182ZM0 301.5h600v-1H0v1Z"/>
  <path fill="#43F3D4" fill-opacity=".4" d="M300 101h100v200H300z"/>
  <path stroke="#000" d="M300 101h100v200H300z"/>
  <path fill="#43F3D4" fill-opacity=".4" d="M300 301H100l200-100v100Zm100 0c0 55.228-44.772 100-100 100V301h100Z"/>
</svg>
